<svg xmlns="http://www.w3.org/2000/svg" width="18" height="18" viewBox="0 0 18 18">
  <path id="call" d="M9,18a9,9,0,1,1,9-9A9.01,9.01,0,0,1,9,18Zm4.848-6.044a.274.274,0,0,0-.12-.343L11.9,10.559a.28.28,0,0,0-.381.1,1.714,1.714,0,0,1-1.127.864,1.655,1.655,0,0,1-1.359-.305A12.725,12.725,0,0,1,6.78,8.962,1.655,1.655,0,0,1,6.475,7.6a1.714,1.714,0,0,1,.864-1.127.279.279,0,0,0,.1-.381L6.387,4.272a.273.273,0,0,0-.238-.14.286.286,0,0,0-.105.02l-.022.009a8.772,8.772,0,0,0-1.455.661,1.957,1.957,0,0,0-.314,2c.712,2.656,4.273,6.218,6.929,6.929a1.957,1.957,0,0,0,2-.314,8.786,8.786,0,0,0,.66-1.455Zm.867.34-.009.022a6.317,6.317,0,0,1-.868,1.773,2.477,2.477,0,0,1-1.817.709,4.171,4.171,0,0,1-1.079-.153c-2.964-.794-6.793-4.624-7.588-7.588a2.8,2.8,0,0,1,.555-2.9,6.316,6.316,0,0,1,1.773-.869L5.7,3.285a1.2,1.2,0,0,1,1.49.521L8.247,5.631A1.211,1.211,0,0,1,7.8,7.283a.809.809,0,0,0-.417.507.728.728,0,0,0,.138.614A11.868,11.868,0,0,0,9.6,10.475a.728.728,0,0,0,.614.138.809.809,0,0,0,.507-.417,1.211,1.211,0,0,1,1.652-.443l1.824,1.053h0a1.2,1.2,0,0,1,.521,1.49Z" fill="#e65627" fill-rule="evenodd"/>
</svg>
