<svg xmlns="http://www.w3.org/2000/svg" width="511.949" height="512" viewBox="0 0 511.949 512">
  <g id="ic_home" transform="translate(0 0.001)">
    <path id="Path_846" data-name="Path 846" d="M498.2,222.7l-.035-.035L289.3,13.812a47.124,47.124,0,0,0-66.66,0L13.9,222.55c-.07.07-.145.145-.211.215a47.116,47.116,0,0,0,31.363,80.3c.48.047.969.07,1.457.07h8.32v153.7A55.229,55.229,0,0,0,110,512h81.711a15,15,0,0,0,15-15V376.5a25.2,25.2,0,0,1,25.172-25.168h48.2A25.2,25.2,0,0,1,305.243,376.5V497a15,15,0,0,0,15,15h81.711a55.226,55.226,0,0,0,55.168-55.16V303.14h7.719A47.139,47.139,0,0,0,498.2,222.695Zm0,0" fill="#02577a"/>
    <path id="Path_847" data-name="Path 847" d="M498.2,222.7l-.035-.035L289.3,13.812A46.815,46.815,0,0,0,255.977,0h0V351.331h24.1A25.2,25.2,0,0,1,305.242,376.5V497a15,15,0,0,0,15,15h81.711a55.226,55.226,0,0,0,55.168-55.16V303.14h7.719A47.139,47.139,0,0,0,498.2,222.695Zm0,0" fill="#02577a"/>
  </g>
</svg>
