<svg id="ic_power_monitoring_dashboard_white" xmlns="http://www.w3.org/2000/svg" width="21.73" height="20.286" viewBox="0 0 21.73 20.286">
  <path id="Path_38728" data-name="Path 38728" d="M304.77,153.017a2.42,2.42,0,0,0-1.463,3.533l1.463-1.463Z" transform="translate(-290.128 -147.244)" fill="#fff"/>
  <path id="Path_38729" data-name="Path 38729" d="M153.785,430.528h-.819L152.712,429h-6l-.255,1.528h-.819a.637.637,0,0,0,0,1.273h8.148a.637.637,0,0,0,0-1.273Z" transform="translate(-138.846 -411.515)" fill="#fff"/>
  <path id="Path_38730" data-name="Path 38730" d="M331.742,224.463A2.42,2.42,0,0,0,335.275,223H333.2Z" transform="translate(-317.663 -214.257)" fill="#fff"/>
  <path id="Path_38731" data-name="Path 38731" d="M19.819,17H11.5v2a.637.637,0,0,1-1.273,0V17H1.91A1.912,1.912,0,0,0,0,18.91V31.3a1.912,1.912,0,0,0,1.91,1.91H19.82a1.912,1.912,0,0,0,1.91-1.91V18.91A1.912,1.912,0,0,0,19.819,17ZM9.464,28.5a.637.637,0,0,1-.637.637H3.4a.637.637,0,0,1-.637-.637V21.71a.637.637,0,1,1,1.273,0v6.154H5.475V23.748a.637.637,0,0,1,1.273,0v4.117H8.191v-2.08a.637.637,0,0,1,1.273,0Zm5.814.3a3.692,3.692,0,1,1,3.692-3.692A3.692,3.692,0,0,1,15.278,28.8Z" transform="translate(0 -17)" fill="#fff"/>
  <path id="Path_38732" data-name="Path 38732" d="M375,153.017v1.7h1.7A2.428,2.428,0,0,0,375,153.017Z" transform="translate(-359.085 -147.244)" fill="#fff"/>
</svg>
