<svg id="ic_power_monitoring_dashboard" xmlns="http://www.w3.org/2000/svg" width="21.729" height="20.244" viewBox="0 0 21.729 20.244">
  <path id="Path_38733" data-name="Path 38733" d="M183.064,373.847h-5.432a.637.637,0,0,1-.628-.741l.679-4.074a.637.637,0,0,1,.628-.532h4.074a.637.637,0,0,1,.628.532l.679,4.074A.637.637,0,0,1,183.064,373.847Z" transform="translate(-169.483 -353.604)" fill="#8bb9ff"/>
  <path id="Path_38734" data-name="Path 38734" d="M258.716,373.847H256V368.5h2.037a.637.637,0,0,1,.628.532l.679,4.074A.637.637,0,0,1,258.716,373.847Z" transform="translate(-245.135 -353.604)" fill="#6e75e2"/>
  <path id="Path_38735" data-name="Path 38735" d="M154.422,465.137a.637.637,0,0,1-.637.637h-8.148a.637.637,0,0,1,0-1.273h8.148A.637.637,0,0,1,154.422,465.137Z" transform="translate(-138.846 -445.53)" fill="#6e75e2"/>
  <path id="Path_38736" data-name="Path 38736" d="M260.711,465.137a.637.637,0,0,1-.637.637H256V464.5h4.074A.637.637,0,0,1,260.711,465.137Z" transform="translate(-245.135 -445.53)" fill="#3340d8"/>
  <path id="Path_38737" data-name="Path 38737" d="M35.456,33.773v12.35A1.273,1.273,0,0,1,34.183,47.4H16.273A1.273,1.273,0,0,1,15,46.123V33.773A1.273,1.273,0,0,1,16.273,32.5h17.91A1.273,1.273,0,0,1,35.456,33.773Z" transform="translate(-14.363 -31.863)" fill="#f6f9f9"/>
  <path id="Path_38738" data-name="Path 38738" d="M266.228,33.773v12.35a1.273,1.273,0,0,1-1.273,1.273H256V32.5h8.955A1.273,1.273,0,0,1,266.228,33.773Z" transform="translate(-245.135 -31.863)" fill="#d2cee9"/>
  <path id="Path_38739" data-name="Path 38739" d="M19.819,17.5H1.91A1.912,1.912,0,0,0,0,19.41V31.76a1.912,1.912,0,0,0,1.91,1.91h17.91a1.912,1.912,0,0,0,1.91-1.91V19.41A1.912,1.912,0,0,0,19.819,17.5Zm.637,14.26a.637.637,0,0,1-.637.637H1.91a.637.637,0,0,1-.637-.637V19.41a.637.637,0,0,1,.637-.637h17.91a.637.637,0,0,1,.637.637Z" transform="translate(0 -17.5)" fill="#6e75e2"/>
  <path id="Path_38740" data-name="Path 38740" d="M266.865,19.41V31.76a1.912,1.912,0,0,1-1.91,1.91H256V32.4h8.955a.637.637,0,0,0,.637-.637V19.41a.637.637,0,0,0-.637-.637H256V17.5h8.955A1.912,1.912,0,0,1,266.865,19.41Z" transform="translate(-245.135 -17.5)" fill="#3340d8"/>
  <path id="Path_38741" data-name="Path 38741" d="M242.273,18.137v1.358a.637.637,0,1,1-1.273,0V18.137a.637.637,0,1,1,1.273,0Z" transform="translate(-230.772 -17.5)" fill="#6e75e2"/>
  <path id="Path_38742" data-name="Path 38742" d="M256.637,18.137v1.358a.637.637,0,0,1-.637.637V17.5A.637.637,0,0,1,256.637,18.137Z" transform="translate(-245.135 -17.5)" fill="#3340d8"/>
  <path id="Path_38743" data-name="Path 38743" d="M129.637,166.89a.637.637,0,0,1-.637-.637v-4.117a.637.637,0,0,1,1.273,0v4.117A.637.637,0,0,1,129.637,166.89Z" transform="translate(-123.525 -155.389)" fill="#ffb454"/>
  <path id="Path_38744" data-name="Path 38744" d="M193.637,212.853a.637.637,0,0,1-.637-.637v-2.08a.637.637,0,1,1,1.273,0v2.08A.637.637,0,0,1,193.637,212.853Z" transform="translate(-184.809 -201.352)" fill="#e27a4e"/>
  <circle id="Ellipse_211" data-name="Ellipse 211" cx="3.5" cy="3.5" r="3.5" transform="translate(12 4.339)" fill="#ffb454"/>
  <path id="Path_38745" data-name="Path 38745" d="M304.783,194.137a3.692,3.692,0,0,1-6.3,2.611l2.611-2.611V193.5h3.056A.637.637,0,0,1,304.783,194.137Z" transform="translate(-285.813 -186.031)" fill="#00cb75"/>
  <path id="Path_38746" data-name="Path 38746" d="M363.692,125.192H360V121.5A3.7,3.7,0,0,1,363.692,125.192Z" transform="translate(-344.722 -117.086)" fill="#6e75e2"/>
  <path id="Path_38747" data-name="Path 38747" d="M65.637,120.927A.637.637,0,0,1,65,120.29v-6.154a.637.637,0,0,1,1.273,0v6.154A.637.637,0,0,1,65.637,120.927Z" transform="translate(-62.241 -109.426)" fill="#ace233"/>
  <path id="Path_38748" data-name="Path 38748" d="M65,273.5v.637a.637.637,0,0,0,.637.637h5.432a.637.637,0,0,0,.637-.637V273.5Z" transform="translate(-62.241 -262.635)" fill="#e2dff4"/>
</svg>
