<svg xmlns="http://www.w3.org/2000/svg" width="90" height="76.085" viewBox="0 0 90 76.085"><defs><style>.a{fill:#e65627;}</style></defs><path class="a" d="M-97.76-188.422h0c2.671-3.96,2.671-3.96,5.462-8.287,4.513,2.319,4.513,2.319,8.722,4.367-2.837,4-2.837,4-5.606,7.6C-93.343-186.417-93.343-186.417-97.76-188.422Zm16.369-4.647,0-.016c2.768-4.316,2.768-4.316,5.425-8.814,3.481,2.075,3.481,2.075,6.439,3.829-2.452,4.1-2.452,4.1-5.075,8.006C-77.736-191.383-77.736-191.383-81.391-193.07Zm-37.467-7.444,0,0c2.113-4.313,2.113-4.313,4.492-8.888,4.6,2.825,4.6,2.825,9.373,5.664-2.611,4.558-2.611,4.558-5.026,8.8C-114.543-197.694-114.543-197.694-118.858-200.514Zm50.873,1.608h0c2.089-4.167,2.089-4.167,3.871-8.311a18.793,18.793,0,0,1,2.773,3.262,66.833,66.833,0,0,1-3.166,7.387C-65.9-197.548-65.9-197.548-67.985-198.905Zm-34.557-5.446,5.618-9.734c4.894,2.826,4.894,2.826,9.667,5.6-2.805,4.814-2.805,4.814-5.634,9.507C-97.678-201.6-97.678-201.6-102.543-204.352Zm27.4.977v-.005c2.409-4.557,2.409-4.557,4.572-9.05,3.168,2.405,3.168,2.405,5.758,4.576-1.835,4.2-1.835,4.2-3.97,8.421ZM-127.55-207v-.009c1.7-4.216,1.7-4.216,3.728-8.65,3.813,2.6,3.813,2.6,8.027,5.342-2.334,4.577-2.334,4.577-4.4,8.876C-124.079-204.244-124.079-204.244-127.55-207Zm42.677-2.174c2.656-4.8,2.656-4.8,5.133-9.506,4.214,2.785,4.214,2.785,8.033,5.428-2.212,4.539-2.212,4.539-4.661,9.141C-80.444-206.55-80.444-206.55-84.873-209.176Zm-48.65-3.6v0a81.948,81.948,0,0,1,2.85-8.062c2.569,2.068,2.569,2.068,5.721,4.4-1.97,4.393-1.97,4.393-3.611,8.57A61.42,61.42,0,0,1-133.524-212.775Zm10.42-4.329c2.375-4.586,2.377-4.588,4.961-9.163,4.064,2.325,4.064,2.325,8.5,4.849-2.746,4.816-2.746,4.816-5.352,9.573C-119.247-214.546-119.248-214.547-123.1-217.1ZM-136-217.28h0a50.477,50.477,0,0,1,1.923-7.167,17.247,17.247,0,0,0,2.717,2.994,76.346,76.346,0,0,0-2.724,7.964A11.885,11.885,0,0,1-136-217.28Zm28.747-4.816v0c2.839-4.724,2.839-4.724,5.655-9.239,4.738,2.527,4.738,2.527,9.548,5.221-2.731,4.684-2.731,4.684-5.545,9.535C-102.484-219.388-102.484-219.388-107.251-222.1Zm-15.857,4.989,0,0,0,.008Zm-6.976-5.067h-.009c2.059-4.219,2.059-4.219,4.351-8.335,2.922,1.6,2.922,1.6,6.377,3.552-2.554,4.532-2.554,4.532-4.889,9.07C-127.459-220.164-127.459-220.164-130.084-222.174Zm65.007-23.176-22.695-4.642A137.513,137.513,0,0,1-46-260.823l-23.719,40.746S-66.109-240.193-65.077-245.35ZM-89.672-226.7c2.482-4.332,2.482-4.332,4.751-8.264,4.421,2.677,4.421,2.677,8.648,5.465-1.914,4.034-1.914,4.034-4.126,8.44C-84.95-223.9-84.95-223.9-89.672-226.7Zm-43.961,1.091.011-.007a68.291,68.291,0,0,1,3.6-7.227c1.408.73,1.408.73,3.481,1.881-2.256,4.058-2.256,4.058-4.252,8.206A21.429,21.429,0,0,1-133.633-225.61Zm16.354-2.1h.007c2.746-4.4,2.746-4.4,5.57-8.56,4.147,1.939,4.147,1.939,8.619,4.16-2.827,4.476-2.827,4.476-5.659,9.163C-113.188-225.451-113.188-225.451-117.279-227.714Zm16.6-5.023,0-.007c2.71-4.094,2.71-4.094,5.265-7.748,4.5,2.235,4.5,2.235,9.051,4.7-2.3,3.914-2.3,3.914-4.834,8.215C-95.981-230.243-95.981-230.243-100.68-232.737Zm-24.268.912h0c2.573-3.927,2.573-3.927,5.289-7.587,3.1,1.095,3.1,1.095,6.708,2.577-2.823,4.1-2.823,4.1-5.57,8.455C-122-230.272-122-230.272-124.948-231.825Zm-4.391-2.139h.005a64.326,64.326,0,0,1,4.781-6.359,15.5,15.5,0,0,1,4,.657c-2.668,3.559-2.668,3.559-5.211,7.409C-127.888-233.311-127.888-233.311-129.339-233.964Zm18.566-3.586,0,0c2.8-3.683,2.8-3.683,5.534-6.918,4.076,1.483,4.076,1.483,8.379,3.32-2.586,3.61-2.586,3.61-5.317,7.658C-106.636-235.666-106.636-235.666-110.773-237.549Zm-8.01-2.955-.007.005a68.5,68.5,0,0,1,5.6-5.858,51.607,51.607,0,0,1,6.706,1.492c-2.735,3.157-2.735,3.157-5.57,6.788C-115.659-239.493-115.659-239.493-118.783-240.5Zm-4.948-.716a42.553,42.553,0,0,1,5.364-4.595,11.136,11.136,0,0,1,4.263-.611,66.269,66.269,0,0,0-5.57,5.685A14.675,14.675,0,0,0-123.731-241.22Zm0,0h0l0,0Z" transform="translate(136 260.823)"/></svg>