<svg id="magnifier" xmlns="http://www.w3.org/2000/svg" width="29.942" height="29.943" viewBox="0 0 29.942 29.943">
  <g id="Group_116" data-name="Group 116" transform="translate(0 0)">
    <path id="Path_216" data-name="Path 216" d="M3.553,20.735A12.15,12.15,0,0,1,20.736,3.553a11.914,11.914,0,0,1,1.828,14.663.511.511,0,0,0,.071.609l6.2,6.2c1.234,1.234,1.528,2.959.433,4.053l-.188.188c-1.094,1.094-2.819.8-4.053-.433l-6.186-6.186a.519.519,0,0,0-.622-.084A11.914,11.914,0,0,1,3.553,20.735Zm14.939-2.243a8.977,8.977,0,1,0-12.7,0A8.988,8.988,0,0,0,18.492,18.492Z" transform="translate(-0.001 0)" fill="#e65627"/>
    <g id="Group_115" data-name="Group 115" transform="translate(7.759 4.862)">
      <path id="Path_217" data-name="Path 217" d="M123.709,56.969a1.255,1.255,0,0,0,1.154-1.743,7.9,7.9,0,0,0-10.346-4.194,1.254,1.254,0,1,0,.977,2.31,5.392,5.392,0,0,1,7.059,2.861A1.254,1.254,0,0,0,123.709,56.969Z" transform="translate(-113.752 -50.409)" fill="#e65627"/>
    </g>
  </g>
</svg>
