<svg id="profile" xmlns="http://www.w3.org/2000/svg" width="37.447" height="37.447" viewBox="0 0 37.447 37.447">
  <g id="Group_114" data-name="Group 114">
    <g id="Group_100" data-name="Group 100" transform="translate(0 0.011)">
      <path id="Path_189" data-name="Path 189" d="M18.725,35.357l7.418-1.873A19.171,19.171,0,0,0,18.081.017,18.723,18.723,0,0,0,5.545,32.03Z" transform="translate(0 -0.017)" fill="#cbe2ff"/>
    </g>
    <g id="Group_101" data-name="Group 101" transform="translate(16.343)">
      <path id="Path_190" data-name="Path 190" d="M42.53,18.724a18.7,18.7,0,0,1-7.516,15l6.731-1.7A18.723,18.723,0,0,0,28.567,0a18.906,18.906,0,0,0-2.38.15A18.727,18.727,0,0,1,42.53,18.724Z" transform="translate(-26.186 0)" fill="#bed8fb"/>
    </g>
    <g id="Group_113" data-name="Group 113" transform="translate(5.122 5.359)">
      <g id="Group_112" data-name="Group 112">
        <g id="Group_111" data-name="Group 111">
          <path id="Path_191" data-name="Path 191" d="M30.419,10.319a1.731,1.731,0,0,0-1.731-1.731H22.721a3.985,3.985,0,0,0-3.985,3.985V17H32.794V12.635A1.731,1.731,0,0,0,31.062,10.9H31a.585.585,0,0,1-.585-.585Z" transform="translate(-12.165 -8.587)" fill="#365e7d"/>
          <path id="Path_192" data-name="Path 192" d="M36.662,10.9H36.6a.585.585,0,0,1-.585-.585,1.731,1.731,0,0,0-1.731-1.731h-.654V17h4.76V12.635A1.731,1.731,0,0,0,36.662,10.9Z" transform="translate(-17.764 -8.587)" fill="#2b4d66"/>
          <path id="Path_193" data-name="Path 193" d="M34.172,41.937a4.151,4.151,0,0,0-1.667-1.005l-5.112-1.618-5.584-.2-5.586.2-5.112,1.618a4.16,4.16,0,0,0-2.9,3.966v1.4A18.67,18.67,0,0,0,21.166,52.14a19.2,19.2,0,0,0,13.006-10.2Z" transform="translate(-8.207 -20.063)" fill="#4a80aa"/>
          <path id="Path_194" data-name="Path 194" d="M42.171,47.828v-1.4A4.159,4.159,0,0,0,40.627,43.2,18.739,18.739,0,0,1,26.193,53.534a18.9,18.9,0,0,0,2.342.15,20.02,20.02,0,0,0,2.254-.13,18.675,18.675,0,0,0,11.381-5.726Z" transform="translate(-14.968 -21.597)" fill="#407093"/>
          <path id="Path_195" data-name="Path 195" d="M28.126,51.089c1.133-2.249,4.083-8.635,3.242-12.624L27.7,37.038l-3.668,1.426c-.867,4.112,2.294,10.772,3.341,12.821q.378-.091.749-.2Z" transform="translate(-14.101 -19.281)" fill="#e4f6ff"/>
          <path id="Path_196" data-name="Path 196" d="M30.939,53.174l-1.486-5.845H27.715l-1.482,5.829,1.833,2.04q.7-.16,1.376-.37Z" transform="translate(-14.982 -23.149)" fill="#e28086"/>
          <path id="Path_197" data-name="Path 197" d="M29,59.36c.152,0,.3.007.456.007.177,0,.353,0,.528-.008l.944-1.043a18.577,18.577,0,0,1-2.29.642Z" transform="translate(-15.886 -27.279)" fill="#dd636e"/>
          <g id="Group_109" data-name="Group 109" transform="translate(6.571 4.692)">
            <g id="Group_108" data-name="Group 108" transform="translate(3.899 10.656)">
              <g id="Group_107" data-name="Group 107">
                <g id="Group_106" data-name="Group 106">
                  <g id="Group_105" data-name="Group 105">
                    <g id="Group_104" data-name="Group 104">
                      <g id="Group_103" data-name="Group 103">
                        <g id="Group_102" data-name="Group 102">
                          <path id="Path_198" data-name="Path 198" d="M31.243,36.474v-3.3H24.984v3.3c0,1.728,3.13,3.616,3.13,3.616S31.243,38.2,31.243,36.474Z" transform="translate(-24.984 -33.178)" fill="#ffddce"/>
                        </g>
                      </g>
                    </g>
                  </g>
                </g>
              </g>
            </g>
            <path id="Path_199" data-name="Path 199" d="M32.794,19.242H31.6a1.2,1.2,0,0,1-1.2-1.2v-.659a1.272,1.272,0,0,0-1.671-1.208,9.42,9.42,0,0,1-5.911,0h0a1.272,1.272,0,0,0-1.671,1.208v.66a1.2,1.2,0,0,1-1.2,1.2h-1.2v1.97a.912.912,0,0,0,.912.912.3.3,0,0,1,.3.283,5.831,5.831,0,0,0,11.639,0,.3.3,0,0,1,.3-.283.912.912,0,0,0,.912-.912v-1.97Z" transform="translate(-18.736 -16.104)" fill="#ffddce"/>
            <path id="Path_200" data-name="Path 200" d="M35.447,19.242a1.2,1.2,0,0,1-1.2-1.2v-.659a1.272,1.272,0,0,0-1.671-1.208q-.341.113-.688.2v6.507a5.83,5.83,0,0,1-2.905,4.956,5.825,5.825,0,0,0,6.456-5.425.3.3,0,0,1,.3-.283.912.912,0,0,0,.912-.912v-1.97h-1.2Z" transform="translate(-22.586 -16.105)" fill="#ffcbbe"/>
          </g>
          <g id="Group_110" data-name="Group 110" transform="translate(8.016 17.757)">
            <path id="Path_201" data-name="Path 201" d="M23.506,37.038l-2.454,1.994,2.574,3.183a.853.853,0,0,0,1.141.043L26.7,40.642Z" transform="translate(-21.051 -37.038)" fill="#f4fbff"/>
            <path id="Path_202" data-name="Path 202" d="M33.169,37.038l-3.064,3.6L31.924,42.2a.853.853,0,0,0,1.145-.033l2.555-3.131Z" transform="translate(-24.454 -37.038)" fill="#f4fbff"/>
          </g>
        </g>
        <path id="Path_203" data-name="Path 203" d="M22.565,37.038l-3.6,1.77a.546.546,0,0,0-.244.74l.706,1.368a.916.916,0,0,1-.167,1.069l-.439.438a.914.914,0,0,0-.224.932c.852,2.6,4.953,6.57,6.505,8.007l.314.006c-1.126-2.189-5.114-10.507-2.848-14.33Z" transform="translate(-12.094 -19.281)" fill="#365e7d"/>
        <path id="Path_204" data-name="Path 204" d="M36.608,41.985a.916.916,0,0,1-.167-1.069l.706-1.368a.546.546,0,0,0-.244-.74l-3.6-1.77c2.266,3.822-1.72,12.136-2.847,14.328l.317-.008c1.555-1.44,5.65-5.408,6.5-8a.914.914,0,0,0-.224-.932l-.439-.438Z" transform="translate(-16.569 -19.281)" fill="#365e7d"/>
        <path id="Path_205" data-name="Path 205" d="M28.957,42.812,27.051,44.4l.971,1.227h1.738l.971-1.3Z" transform="translate(-15.29 -21.451)" fill="#dd636e"/>
      </g>
    </g>
  </g>
</svg>
