<svg xmlns="http://www.w3.org/2000/svg" width="30" height="25.362" viewBox="0 0 30 25.362">
  <path id="Solar_Icon" data-name="Solar Icon" d="M-123.253-236.689h0c.89-1.32.89-1.32,1.821-2.762,1.5.773,1.5.773,2.907,1.456-.946,1.334-.946,1.334-1.869,2.535C-121.781-236.021-121.781-236.021-123.253-236.689Zm5.456-1.549v-.005c.923-1.439.923-1.439,1.808-2.938,1.16.692,1.16.692,2.146,1.276-.817,1.367-.817,1.367-1.692,2.669C-116.578-237.676-116.578-237.676-117.8-238.238Zm-12.489-2.481h0c.7-1.438.7-1.438,1.5-2.963,1.532.942,1.532.942,3.124,1.888-.87,1.519-.87,1.519-1.675,2.933C-128.848-239.78-128.848-239.78-130.286-240.72Zm16.958.536h0c.7-1.389.7-1.389,1.29-2.77a6.264,6.264,0,0,1,.924,1.087,22.272,22.272,0,0,1-1.055,2.462C-112.632-239.731-112.632-239.731-113.328-240.184ZM-124.848-242l1.873-3.245c1.631.942,1.631.942,3.222,1.867-.935,1.6-.935,1.6-1.878,3.169C-123.226-241.081-123.226-241.081-124.848-242Zm9.133.326v0c.8-1.519.8-1.519,1.524-3.017,1.056.8,1.056.8,1.919,1.525-.612,1.4-.612,1.4-1.323,2.807Zm-17.469-1.209v0c.567-1.405.567-1.405,1.243-2.883,1.271.866,1.271.866,2.676,1.781-.778,1.526-.778,1.526-1.467,2.959C-132.026-241.963-132.026-241.963-133.183-242.883Zm14.226-.725c.885-1.6.885-1.6,1.711-3.169,1.4.928,1.4.928,2.677,1.809-.737,1.513-.737,1.513-1.554,3.047C-117.481-242.732-117.481-242.732-118.958-243.607Zm-16.217-1.2h0a27.313,27.313,0,0,1,.95-2.687c.856.689.856.689,1.907,1.468-.657,1.464-.657,1.464-1.2,2.857A20.478,20.478,0,0,1-135.174-244.807Zm3.473-1.443c.792-1.529.792-1.529,1.654-3.054,1.355.775,1.355.775,2.834,1.616-.915,1.605-.915,1.605-1.784,3.191C-130.415-245.4-130.416-245.4-131.7-246.25Zm-4.3-.058h0a16.825,16.825,0,0,1,.641-2.389,5.749,5.749,0,0,0,.906,1,25.453,25.453,0,0,0-.908,2.655A3.962,3.962,0,0,1-136-246.308Zm9.582-1.605h0c.946-1.575.946-1.575,1.885-3.08,1.579.842,1.579.842,3.183,1.74-.91,1.561-.91,1.561-1.848,3.178C-124.828-247.011-124.828-247.011-126.417-247.914Zm-5.286,1.663h0v0Zm-2.325-1.689h0c.686-1.406.686-1.406,1.45-2.778.974.532.974.532,2.126,1.184-.851,1.511-.851,1.511-1.63,3.023C-133.153-247.27-133.153-247.27-134.028-247.94Zm21.669-7.725-7.565-1.547A45.837,45.837,0,0,1-106-260.823l-7.906,13.582S-112.7-253.946-112.359-255.665Zm-8.2,6.216c.827-1.444.827-1.444,1.584-2.755,1.474.892,1.474.892,2.883,1.822-.638,1.345-.638,1.345-1.375,2.813C-118.983-248.515-118.983-248.515-120.557-249.449Zm-14.654.364,0,0a22.765,22.765,0,0,1,1.2-2.409c.469.243.469.243,1.16.627-.752,1.352-.752,1.352-1.417,2.735A7.146,7.146,0,0,1-135.211-249.085Zm5.451-.7h0c.915-1.467.915-1.467,1.856-2.853,1.382.646,1.382.646,2.873,1.387-.942,1.492-.942,1.492-1.886,3.054C-128.4-249.032-128.4-249.032-129.76-249.786Zm5.533-1.674v0c.9-1.365.9-1.365,1.755-2.583,1.5.745,1.5.745,3.017,1.566-.765,1.3-.765,1.3-1.611,2.738C-122.66-250.629-122.66-250.629-124.227-251.461Zm-8.089.3h0c.858-1.309.858-1.309,1.763-2.529,1.034.365,1.034.365,2.236.859-.941,1.367-.941,1.367-1.857,2.818C-131.333-250.639-131.333-250.639-132.316-251.157Zm-1.464-.713h0a21.439,21.439,0,0,1,1.594-2.119,5.163,5.163,0,0,1,1.335.219c-.889,1.186-.889,1.186-1.737,2.47C-133.3-251.652-133.3-251.652-133.78-251.87Zm6.189-1.2h0c.932-1.228.932-1.228,1.845-2.306,1.359.494,1.359.494,2.793,1.107-.862,1.2-.862,1.2-1.772,2.553C-126.212-252.437-126.212-252.437-127.591-253.065Zm-2.67-.985,0,0A22.822,22.822,0,0,1-128.4-256a17.2,17.2,0,0,1,2.235.5c-.912,1.052-.912,1.052-1.857,2.263C-129.22-253.713-129.22-253.713-130.261-254.05Zm-1.649-.239a14.176,14.176,0,0,1,1.788-1.532,3.711,3.711,0,0,1,1.421-.2,22.1,22.1,0,0,0-1.857,1.895A4.891,4.891,0,0,0-131.91-254.289Zm0,0h0Z" transform="translate(136 260.823)" fill="#fff"/>
</svg>
