<svg xmlns="http://www.w3.org/2000/svg" width="24" height="32" viewBox="0 0 24 32"><path d="M11.369,16.006a6.03,6.03,0,0,1-.125-2.931C11.769,13.075,11.719,15.381,11.369,16.006Zm-.106,2.95a28.839,28.839,0,0,1-1.775,3.919,23.014,23.014,0,0,1,3.931-1.369A8.1,8.1,0,0,1,11.262,18.956Zm-5.881,7.8c0,.05.825-.337,2.181-2.512A8.638,8.638,0,0,0,5.381,26.756ZM15.5,10H24V30.5A1.5,1.5,0,0,1,22.5,32H1.5A1.5,1.5,0,0,1,0,30.5V1.5A1.5,1.5,0,0,1,1.5,0H14V8.5A1.5,1.5,0,0,0,15.5,10ZM15,20.738a6.273,6.273,0,0,1-2.669-3.363c.281-1.156.725-2.912.388-4.013a1.565,1.565,0,0,0-2.988-.425c-.312,1.144-.025,2.756.506,4.812a58.69,58.69,0,0,1-2.55,5.363c-.006,0-.006.006-.013.006-1.694.869-4.6,2.781-3.406,4.25a1.942,1.942,0,0,0,1.344.625c1.119,0,2.231-1.125,3.819-3.863a35.626,35.626,0,0,1,4.938-1.45,9.472,9.472,0,0,0,4,1.219A1.618,1.618,0,0,0,19.6,21.187c-.869-.85-3.394-.606-4.6-.45ZM23.563,6.563,17.438.438A1.5,1.5,0,0,0,16.375,0H16V8h8V7.619A1.5,1.5,0,0,0,23.563,6.563ZM18.931,22.519c.256-.169-.156-.744-2.675-.562C18.575,22.944,18.931,22.519,18.931,22.519Z" fill="#ff2323"/></svg>