<svg xmlns="http://www.w3.org/2000/svg" width="16" height="16.004" viewBox="0 0 16 16.004">
  <g id="Layer_92" data-name="Layer 92" transform="translate(-2.013 -2.008)">
    <path id="Path_23590" data-name="Path 23590" d="M19.865,2.722a2.4,2.4,0,0,0-3.418,0L14.91,4.283,18.3,7.677,19.841,6.14a2.4,2.4,0,0,0,.024-3.418Z" transform="translate(-2.573)" fill="#343e55"/>
    <path id="Path_23591" data-name="Path 23591" d="M11.2,6.27,4.484,12.986a.921.921,0,0,0-.152.208L2.107,17.685a.8.8,0,0,0,1.049,1.1l4.491-2.225a.921.921,0,0,0,.208-.152L14.57,9.688Z" transform="translate(0 -0.85)" fill="#343e55"/>
    <path id="Path_23592" data-name="Path 23592" d="M19.005,21.6H11.8a.8.8,0,1,1,0-1.6h7.2a.8.8,0,0,1,0,1.6Z" transform="translate(-1.793 -3.589)" fill="#343e55"/>
  </g>
</svg>
