<svg xmlns="http://www.w3.org/2000/svg" width="27.848" height="30" viewBox="0 0 27.848 30">
  <g id="ic_tree" transform="translate(-18.36 0)">
    <path id="Path_29" data-name="Path 29" d="M341.956,378.149v7.3a.533.533,0,0,0,.527.539h1.178a.533.533,0,0,0,.527-.539v-7.3Z" transform="translate(-304.635 -355.992)" fill="#bc7c63"/>
    <path id="Path_30" data-name="Path 30" d="M343.345,385.453v-7.3h-1.388v7.3a.533.533,0,0,0,.527.539h1.178a.516.516,0,0,0,.105-.011A.536.536,0,0,1,343.345,385.453Z" transform="translate(-304.636 -355.992)" fill="#ab6b51"/>
    <path id="Path_31" data-name="Path 31" d="M350.464,275.634l-2.615-5.433h-5.286a.594.594,0,0,1-.362.121h-.566l2.557,5.312a.742.742,0,0,1-.665,1.069H349.8A.742.742,0,0,0,350.464,275.634Z" transform="translate(-304.332 -254.369)" fill="#43cb8e"/>
    <path id="Path_32" data-name="Path 32" d="M343.524,276.7h2.564a2.535,2.535,0,0,0-.149-1.859l-1.624-3.374a.446.446,0,0,1,.028-.436l.024-.038a2.422,2.422,0,0,0,.316-.794h-2.123a.6.6,0,0,1-.362.121h-.566l2.557,5.312A.742.742,0,0,1,343.524,276.7Z" transform="translate(-304.331 -254.369)" fill="#00ba66"/>
    <path id="Path_33" data-name="Path 33" d="M332.522,184.019l-2.19-4.571h-5.26a.493.493,0,0,1-.325.121h-.63l2.132,4.45a.6.6,0,0,1-.54.868h6.273A.6.6,0,0,0,332.522,184.019Z" transform="translate(-287.842 -168.933)" fill="#00ba66"/>
    <path id="Path_34" data-name="Path 34" d="M328,183.23l-1.2-2.5a.452.452,0,0,1,.028-.435v0a2.316,2.316,0,0,0,.319-.842h-2.077a.493.493,0,0,1-.325.121h-.63l2.132,4.45a.6.6,0,0,1-.54.868h2.458A2.4,2.4,0,0,0,328,183.23Z" transform="translate(-287.842 -168.932)" fill="#01a755"/>
    <path id="Path_35" data-name="Path 35" d="M315.8,9.914,311.054.28a.5.5,0,0,0-.9,0L307.469,5.74l2.054,4.174a.5.5,0,0,1-.449.721h6.273a.5.5,0,0,0,.449-.721Z" transform="translate(-272.169)" fill="#43cb8e"/>
    <path id="Path_36" data-name="Path 36" d="M309.635,5.8a.445.445,0,0,1,0-.393l1.97-4L311.053.28a.5.5,0,0,0-.9,0L307.468,5.74l2.054,4.174a.5.5,0,0,1-.449.721h2.378a2.3,2.3,0,0,0-.183-1.521Z" transform="translate(-272.168 0)" fill="#00ba66"/>
    <path id="Path_37" data-name="Path 37" d="M131.962,378.149v7.3a.533.533,0,0,0,.527.539h1.178a.533.533,0,0,0,.527-.539v-7.3Z" transform="translate(-106.946 -355.992)" fill="#bc7c63"/>
    <path id="Path_38" data-name="Path 38" d="M133.35,385.453v-7.3h-1.388v7.3a.533.533,0,0,0,.527.539h1.178a.516.516,0,0,0,.105-.011.536.536,0,0,1-.422-.528Z" transform="translate(-106.946 -355.992)" fill="#ab6b51"/>
    <path id="Path_39" data-name="Path 39" d="M24.71,275.635l2.557-5.312H26.7a.6.6,0,0,1-.362-.121H21.052l-2.615,5.433A.742.742,0,0,0,19.1,276.7h6.273A.742.742,0,0,1,24.71,275.635Z" transform="translate(0 -254.37)" fill="#43cb8e"/>
    <path id="Path_40" data-name="Path 40" d="M21.172,275.634l2.615-5.433H21.052l-2.615,5.433A.742.742,0,0,0,19.1,276.7h2.736A.742.742,0,0,1,21.172,275.634Z" transform="translate(0 -254.369)" fill="#00ba66"/>
    <path id="Path_41" data-name="Path 41" d="M49.7,184.019l2.132-4.45H51.2a.493.493,0,0,1-.325-.121h-5.26l-2.19,4.571a.6.6,0,0,0,.54.868h6.273A.6.6,0,0,1,49.7,184.019Z" transform="translate(-23.539 -168.933)" fill="#00ba66"/>
    <path id="Path_42" data-name="Path 42" d="M46.161,184.019l2.19-4.571H45.616l-2.19,4.571a.6.6,0,0,0,.54.868H46.7A.6.6,0,0,1,46.161,184.019Z" transform="translate(-23.539 -168.933)" fill="#01a755"/>
    <path id="Path_43" data-name="Path 43" d="M67.849,9.914,69.9,5.74,67.216.28a.5.5,0,0,0-.9,0L61.576,9.914a.5.5,0,0,0,.449.721H68.3a.5.5,0,0,1-.449-.721Z" transform="translate(-40.635 0)" fill="#43cb8e"/>
    <path id="Path_44" data-name="Path 44" d="M64.311,9.914l3.823-7.768L67.216.28a.5.5,0,0,0-.9,0L61.576,9.914a.5.5,0,0,0,.449.721H64.76a.5.5,0,0,1-.449-.721Z" transform="translate(-40.635 0)" fill="#00ba66"/>
    <path id="Path_45" data-name="Path 45" d="M236.959,378.149v7.3a.533.533,0,0,0,.527.539h1.178a.533.533,0,0,0,.527-.539v-7.3Z" transform="translate(-205.791 -355.992)" fill="#bc7c63"/>
    <path id="Path_46" data-name="Path 46" d="M238.347,385.453v-7.3h-1.388v7.3a.533.533,0,0,0,.527.539h1.178a.516.516,0,0,0,.105-.011A.536.536,0,0,1,238.347,385.453Z" transform="translate(-205.791 -355.992)" fill="#ab6b51"/>
    <path id="Path_47" data-name="Path 47" d="M138.825,275.634,136.21,270.2H126.05l-2.615,5.433a.742.742,0,0,0,.665,1.069H138.16A.742.742,0,0,0,138.825,275.634Z" transform="translate(-98.846 -254.369)" fill="#43cb8e"/>
    <path id="Path_48" data-name="Path 48" d="M126.17,275.634l2.615-5.433H126.05l-2.615,5.433a.742.742,0,0,0,.665,1.069h2.736A.742.742,0,0,1,126.17,275.634Z" transform="translate(-98.846 -254.369)" fill="#00ba66"/>
    <path id="Path_49" data-name="Path 49" d="M160.913,184.019l-2.19-4.571h-8.108l-2.19,4.571a.6.6,0,0,0,.54.868h11.409A.6.6,0,0,0,160.913,184.019Z" transform="translate(-122.384 -168.933)" fill="#00ba66"/>
    <path id="Path_50" data-name="Path 50" d="M151.159,184.019l2.19-4.571h-2.735l-2.19,4.571a.6.6,0,0,0,.54.868H151.7A.6.6,0,0,1,151.159,184.019Z" transform="translate(-122.384 -168.933)" fill="#01a755"/>
    <path id="Path_51" data-name="Path 51" d="M176.955,9.914,172.213.28a.5.5,0,0,0-.9,0l-4.742,9.635a.5.5,0,0,0,.449.721h9.484A.5.5,0,0,0,176.955,9.914Z" transform="translate(-139.48)" fill="#43cb8e"/>
    <path id="Path_52" data-name="Path 52" d="M169.308,9.914l3.823-7.768L172.213.28a.5.5,0,0,0-.9,0l-4.742,9.635a.5.5,0,0,0,.449.721h2.736a.5.5,0,0,1-.449-.721Z" transform="translate(-139.48 0)" fill="#00ba66"/>
  </g>
</svg>
