<svg xmlns="http://www.w3.org/2000/svg" width="22.251" height="17.687" viewBox="0 0 22.251 17.687">
  <g id="credit-card" transform="translate(0.125 -52.974)">
    <path id="Path_23937" data-name="Path 23937" d="M21.609,54.979a1.642,1.642,0,0,0-1.124-.58L4.992,53.105a1.652,1.652,0,0,0-1.784,1.5L2.9,57.533H1.652A1.654,1.654,0,0,0,0,59.186v9.7a1.654,1.654,0,0,0,1.652,1.652H17.2a1.654,1.654,0,0,0,1.652-1.652V67.311l.552.046q.07.006.139.006a1.655,1.655,0,0,0,1.645-1.515l.807-9.664a1.642,1.642,0,0,0-.385-1.2ZM1.652,58.393H17.2a.794.794,0,0,1,.793.793v.884H.859v-.884a.794.794,0,0,1,.793-.793ZM.859,60.929H17.992v1.783H.859ZM17.2,69.677H1.652a.794.794,0,0,1-.793-.793V63.571H17.992v5.313A.794.794,0,0,1,17.2,69.677Zm3.939-13.565-.807,9.664a.794.794,0,0,1-.856.724l-.623-.052V59.186A1.654,1.654,0,0,0,17.2,57.533H3.761l.3-2.838v-.01a.794.794,0,0,1,.856-.724l15.493,1.294a.793.793,0,0,1,.724.856Z" fill="#0f62fe" stroke="#0f62fe" stroke-width="0.25"/>
    <path id="Path_23938" data-name="Path 23938" d="M275.2,326.532h-4.135a.43.43,0,0,0-.43.43v2.7a.43.43,0,0,0,.43.43H275.2a.43.43,0,0,0,.43-.43v-2.7A.43.43,0,0,0,275.2,326.532Zm-.43,2.7H271.49v-1.839h3.276Z" transform="translate(-259.002 -261.683)" fill="#0f62fe" stroke="#0f62fe" stroke-width="0.25"/>
  </g>
</svg>
