<svg xmlns="http://www.w3.org/2000/svg" width="24" height="31.579" viewBox="0 0 24 31.579"><g transform="translate(-7.313 -3.938)"><path d="M22.1,11.752h7.184a.391.391,0,0,0,.395-.395h0a2.337,2.337,0,0,0-.845-1.808L22.812,4.529a2.536,2.536,0,0,0-1.626-.584h0a.583.583,0,0,0-.584.584v5.724A1.5,1.5,0,0,0,22.1,11.752Z" transform="translate(1.632 0.001)" fill="#9c9c9c"/><path d="M20.181,10.253V3.937H9.839A2.534,2.534,0,0,0,7.313,6.464V32.99a2.534,2.534,0,0,0,2.526,2.526H28.786a2.534,2.534,0,0,0,2.526-2.526V13.806H23.734A3.558,3.558,0,0,1,20.181,10.253Z" transform="translate(0 0)" fill="#9c9c9c"/></g></svg>