<svg xmlns="http://www.w3.org/2000/svg" width="25" height="20.674" viewBox="0 0 25 20.674">
  <g id="ic-customer-support" transform="translate(-5.232 -12.114)">
    <path id="path2" d="M18.054,12.119A9.835,9.835,0,0,0,8.279,19.2a1.6,1.6,0,0,0-.634.058,3.242,3.242,0,0,0-1.943,1.7,5.738,5.738,0,0,0-.4,3.224,4.909,4.909,0,0,0,1.311,2.779,2.208,2.208,0,0,0,2.05.659c1.053-.225,1.575-.393,1.428-1.374L9.379,21.49a8.365,8.365,0,0,1,16.705.011l-.5,3.326a8.358,8.358,0,0,1-7.067,5.457H16.391a.989.989,0,0,0-.991.99V31.8a.989.989,0,0,0,.991.99h2.681a.987.987,0,0,0,.989-.99v-.273a9.872,9.872,0,0,0,5.879-4.132l.859.228a2.136,2.136,0,0,0,2.05-.659,4.912,4.912,0,0,0,1.311-2.779,5.776,5.776,0,0,0-.4-3.224,2.8,2.8,0,0,0-1.7-1.632,3.645,3.645,0,0,0-.879-.123,9.834,9.834,0,0,0-9.127-7.084Z" transform="translate(0)" fill="#7985eb" fill-rule="evenodd"/>
    <path id="path4" d="M33.614,27.307a1.285,1.285,0,1,1-1.287,1.285A1.286,1.286,0,0,1,33.614,27.307Zm-3.461,0a1.285,1.285,0,1,1-1.286,1.285A1.284,1.284,0,0,1,30.153,27.307Zm-3.459,0a1.285,1.285,0,1,1-1.285,1.285A1.285,1.285,0,0,1,26.693,27.307Zm3.459-5.52A6.837,6.837,0,0,0,25.194,33.3l-.406,1.821c-.134.6.282,1,.82.7l1.778-.992a6.926,6.926,0,0,0,2.767.57,6.805,6.805,0,0,0,0-13.611Z" transform="translate(-12.421 -6.633)" fill="#ffaa20" fill-rule="evenodd"/>
  </g>
</svg>
