<svg xmlns="http://www.w3.org/2000/svg" width="18" height="18" viewBox="0 0 18 18"><g transform="translate(-83 -528)"><circle cx="5.5" cy="5.5" r="5.5" transform="translate(87 531)" fill="#fff"/><path d="M12.375,3.375a9,9,0,1,0,9,9A9,9,0,0,0,12.375,3.375Zm2.28,12.258-2.28-2.28-2.28,2.28a.691.691,0,1,1-.978-.978l2.28-2.28-2.28-2.28a.691.691,0,0,1,.978-.978l2.28,2.28,2.28-2.28a.691.691,0,0,1,.978.978l-2.28,2.28,2.28,2.28a.7.7,0,0,1,0,.978A.687.687,0,0,1,14.655,15.633Z" transform="translate(79.625 524.625)" fill="#e65627"/></g></svg>