<svg xmlns="http://www.w3.org/2000/svg" width="430" height="363.516" viewBox="0 0 430 363.516"><defs><style>.a{fill:#e65627;opacity:0.04;}</style></defs><path class="a" d="M46.7,85.09h-.008C59.458,66.171,59.458,66.171,72.789,45.5,94.35,56.576,94.35,56.576,114.458,66.362,100.9,85.487,100.9,85.487,87.673,102.693,67.807,94.67,67.807,94.67,46.7,85.09Zm78.207-22.2-.008-.075C138.125,42.19,138.125,42.19,150.823,20.7,167.454,30.613,167.454,30.613,181.59,39c-11.716,19.59-11.716,19.59-24.247,38.251C142.374,70.944,142.374,70.944,124.91,62.887ZM-54.1,27.321l.01-.018C-43.995,6.7-43.995,6.7-32.63-15.163c21.964,13.5,21.964,13.5,44.781,27.059C-.323,33.673-.323,33.673-11.863,53.929-33.484,40.791-33.484,40.791-54.1,27.321ZM188.958,35h.015C198.953,15.1,198.953,15.1,207.467-4.7a89.8,89.8,0,0,1,13.248,15.583,319.263,319.263,0,0,1-15.127,35.292C198.938,41.491,198.938,41.491,188.958,35ZM23.851,8.983c13.3-23.05,13.3-23.05,26.842-46.507,23.382,13.5,23.382,13.5,46.184,26.767-13.4,23-13.4,23-26.917,45.421C47.095,22.141,47.095,22.141,23.851,8.983ZM154.763,13.65v-.026c11.509-21.77,11.509-21.77,21.845-43.241,15.137,11.491,15.137,11.491,27.51,21.86C195.351,12.3,195.351,12.3,185.15,32.476ZM-95.628-3.68v-.041C-87.5-23.863-87.5-23.863-77.816-45.05-59.6-32.635-59.6-32.635-39.464-19.529-50.615,2.339-50.615,2.339-60.486,22.879-79.047,9.5-79.047,9.5-95.628-3.68Zm203.9-10.387C120.96-37,120.96-37,132.794-59.485c20.132,13.305,20.132,13.305,38.377,25.934C160.6-11.864,160.6-11.864,148.9,10.123,129.435-1.518,129.435-1.518,108.271-14.067Zm-232.439-17.2v-.01A391.4,391.4,0,0,1-110.553-69.79c12.273,9.879,12.273,9.879,27.332,21.04-9.412,20.988-9.412,20.988-17.255,40.944A293.28,293.28,0,0,1-124.168-31.263Zm49.782-20.684c11.349-21.909,11.355-21.921,23.7-43.78,19.417,11.109,19.417,11.109,40.614,23.168C-23.19-49.55-23.19-49.55-35.638-26.822-55.956-39.723-55.965-39.729-74.386-51.947Zm-61.606-.838H-136a241.233,241.233,0,0,1,9.187-34.242,82.428,82.428,0,0,0,12.982,14.3,364.856,364.856,0,0,0-13.013,38.05A56.776,56.776,0,0,1-135.992-52.785ZM1.356-75.793v-.015c13.563-22.57,13.563-22.57,27.018-44.141C51.011-107.876,51.011-107.876,73.994-95,60.947-72.625,60.947-72.625,47.5-49.449,24.133-62.855,24.133-62.855,1.356-75.793ZM-74.405-51.959l.019.013-.019.037Zm-33.331-24.208h-.041c9.838-20.158,9.838-20.158,20.79-39.822,13.963,7.632,13.963,7.632,30.47,16.971-12.2,21.654-12.2,21.654-23.359,43.334C-95.195-66.562-95.195-66.562-107.736-76.167ZM202.854-186.9,94.425-209.076A657,657,0,0,1,294-260.823L180.676-66.147S197.921-162.259,202.854-186.9ZM85.346-97.8c11.858-20.7,11.858-20.7,22.7-39.484,21.122,12.789,21.122,12.789,41.319,26.112-9.146,19.275-9.146,19.275-19.714,40.323C107.905-84.408,107.905-84.408,85.346-97.8Zm-210.037,5.212.052-.031a326.269,326.269,0,0,1,17.18-34.528c6.726,3.486,6.726,3.486,16.631,8.989-10.777,19.386-10.777,19.386-20.315,39.208A102.379,102.379,0,0,1-124.692-92.584Zm78.135-10.052h.034c13.122-21.022,13.122-21.022,26.61-40.9C-.1-134.269-.1-134.269,21.266-123.657,7.76-102.269,7.76-102.269-5.77-79.877-27.008-91.825-27.008-91.825-46.557-102.636Zm79.307-24-.01-.034c12.949-19.559,12.949-19.559,25.155-37.02,21.512,10.676,21.512,10.676,43.243,22.451-10.97,18.7-10.97,18.7-23.094,39.249C55.2-114.718,55.2-114.718,32.75-126.635ZM-83.2-122.277l.008-.008C-70.9-141.047-70.9-141.047-57.916-158.534-43.1-153.3-43.1-153.3-25.868-146.219c-13.488,19.6-13.488,19.6-26.61,40.4C-69.108-114.86-69.108-114.86-83.2-122.277Zm-20.98-10.219h.026a307.384,307.384,0,0,1,22.841-30.379,74,74,0,0,1,19.128,3.137c-12.748,17-12.748,17-24.9,35.4C-97.241-129.38-97.241-129.38-104.176-132.5Zm88.7-17.131-.008-.015c13.362-17.6,13.362-17.6,26.442-33.055,19.476,7.085,19.476,7.085,40.031,15.864-12.356,17.247-12.356,17.247-25.4,36.589C4.292-140.631,4.292-140.631-15.473-149.628Zm-38.269-14.12-.034.026a327.149,327.149,0,0,1,26.76-27.99,246.476,246.476,0,0,1,32.041,7.126C-8.04-169.5-8.04-169.5-21.585-152.156-38.814-158.916-38.814-158.916-53.742-163.748Zm-23.64-3.419A203.264,203.264,0,0,1-51.755-189.12a53.219,53.219,0,0,1,20.367-2.918A316.619,316.619,0,0,0-58-164.878,70.092,70.092,0,0,0-77.382-167.167Zm-.018,0h.018l-.008.008Z" transform="translate(136 260.823)"/></svg>