<svg xmlns="http://www.w3.org/2000/svg" width="18" height="22.183" viewBox="0 0 18 22.183">
  <g id="subscription" transform="translate(-0.501 0.001)">
    <path id="Path_23934" data-name="Path 23934" d="M9.52,3.386H12.1l-.979.981a.65.65,0,1,0,.92.918L14.131,3.2a.651.651,0,0,0-.015-.933L12.046.19a.65.65,0,1,0-.92.918l.976.978H9.492A9.01,9.01,0,0,0,1.706,15.574a.65.65,0,1,0,1.128-.646A7.711,7.711,0,0,1,9.52,3.386Zm0,0" transform="translate(0 0)" fill="#0f62fe"/>
    <path id="Path_23935" data-name="Path 23935" d="M109.613,145.316a.65.65,0,1,0-1.127.647,7.71,7.71,0,0,1-6.668,11.541h-2.6l.979-.981a.65.65,0,1,0-.92-.918l-2.085,2.088a.651.651,0,0,0,.016.934l2.069,2.073a.65.65,0,1,0,.92-.918l-.976-.978h2.609a9.01,9.01,0,0,0,7.787-13.487Zm0,0" transform="translate(-92.317 -138.708)" fill="#0f62fe"/>
    <path id="Path_23936" data-name="Path 23936" d="M150.18,153.6h2.6a.65.65,0,0,0,0-1.3h-1.3v-.65a.65.65,0,0,0-1.3,0v.65a1.95,1.95,0,0,0,0,3.9h1.3a.65.65,0,1,1,0,1.3h-2.6a.65.65,0,0,0,0,1.3h1.3v.65a.65.65,0,0,0,1.3,0v-.65a1.95,1.95,0,0,0,0-3.9h-1.3a.65.65,0,0,1,0-1.3Zm0,0" transform="translate(-141.328 -144.458)" fill="#0f62fe"/>
  </g>
</svg>
