<svg xmlns="http://www.w3.org/2000/svg" width="18" height="12.656" viewBox="0 0 18 12.656">
  <g id="email" transform="translate(0 -76)">
    <g id="Group_20299" data-name="Group 20299" transform="translate(0.922 83.075)">
      <g id="Group_20298" data-name="Group 20298">
        <path id="Path_23369" data-name="Path 23369" d="M36.967,277.251l-1.508,1.513a1.669,1.669,0,0,1-2.312,0l-1.508-1.513-5.415,5.432a1.566,1.566,0,0,0,.66.149H41.722a1.565,1.565,0,0,0,.66-.149Z" transform="translate(-26.226 -277.251)" fill="#e65627"/>
      </g>
    </g>
    <g id="Group_20301" data-name="Group 20301" transform="translate(0.922 76)">
      <g id="Group_20300" data-name="Group 20300">
        <path id="Path_23370" data-name="Path 23370" d="M41.724,76H26.888a1.566,1.566,0,0,0-.66.149l5.786,5.805h0L33.9,83.843a.633.633,0,0,0,.818,0L36.6,81.956h0l5.786-5.805A1.565,1.565,0,0,0,41.724,76Z" transform="translate(-26.228 -76)" fill="#e65627"/>
      </g>
    </g>
    <g id="Group_20303" data-name="Group 20303" transform="translate(0 76.886)">
      <g id="Group_20302" data-name="Group 20302">
        <path id="Path_23371" data-name="Path 23371" d="M.168,101.212a1.563,1.563,0,0,0-.168.7V111.4a1.562,1.562,0,0,0,.168.7l5.424-5.442Z" transform="translate(0 -101.212)" fill="#e65627"/>
      </g>
    </g>
    <g id="Group_20305" data-name="Group 20305" transform="translate(12.408 76.886)">
      <g id="Group_20304" data-name="Group 20304">
        <path id="Path_23372" data-name="Path 23372" d="M358.357,101.21l-5.424,5.442,5.424,5.442a1.563,1.563,0,0,0,.168-.7v-9.492A1.563,1.563,0,0,0,358.357,101.21Z" transform="translate(-352.933 -101.21)" fill="#e65627"/>
      </g>
    </g>
  </g>
</svg>
