<svg xmlns="http://www.w3.org/2000/svg" width="10" height="16.354" viewBox="0 0 10 16.354">
  <path id="ic_humidity" d="M106.513,9.168a.057.057,0,0,0-.1,0,8.8,8.8,0,0,0-.941,2.142.992.992,0,1,0,1.984,0A9.931,9.931,0,0,0,106.513,9.168Zm-2.7,3.683a2.426,2.426,0,1,1-2.7.005l-.021-10.562a1.352,1.352,0,0,1,2.7-.005Zm.511-3.915h1.121a.261.261,0,0,1,0,.522h-1.121a.261.261,0,1,1,0-.522Zm0-1.4h1.121a.261.261,0,0,1,0,.522h-1.121a.261.261,0,1,1,0-.522Zm0-1.4h1.121a.261.261,0,0,1,0,.522h-1.121a.261.261,0,1,1,0-.522Zm0-1.4h1.121a.261.261,0,0,1,0,.522h-1.121a.261.261,0,1,1,0-.522Zm0-1.4h1.121a.261.261,0,1,1,0,.522h-1.121a.261.261,0,1,1,0-.522Zm-1.5,11.068a.666.666,0,0,1-.344,1.216A.666.666,0,0,1,102.1,14.4V5.652a.362.362,0,1,1,.724,0ZM109.1,6.348a.057.057,0,0,0-.1,0,8.812,8.812,0,0,0-.94,2.142.992.992,0,0,0,1.984,0A9.943,9.943,0,0,0,109.1,6.348Zm-2.015-2.756a.056.056,0,0,0-.1,0,8.8,8.8,0,0,0-.941,2.142.992.992,0,0,0,1.984,0,9.928,9.928,0,0,0-.941-2.142Z" transform="translate(-100.04 -0.94)" fill="#000000" fill-rule="evenodd"/>
</svg>
