<svg xmlns="http://www.w3.org/2000/svg" width="412.472" height="460.8" viewBox="0 0 412.472 460.8">
  <g id="ic_user" transform="translate(-24.165)">
    <g id="Group_113" data-name="Group 113">
      <g id="Group_112" data-name="Group 112">
        <path id="Path_841" data-name="Path 841" d="M230.432,239.282c65.829,0,119.641-53.812,119.641-119.641S296.261,0,230.432,0s-119.64,53.812-119.64,119.641S164.6,239.282,230.432,239.282Z" fill="#4294ff"/>
        <path id="Path_842" data-name="Path 842" d="M435.755,334.89a111.538,111.538,0,0,0-12.016-21.943c-24.033-35.527-61.126-59.037-102.922-64.784-5.224-.522-10.971.522-15.151,3.657a127.529,127.529,0,0,1-150.466,0,19.6,19.6,0,0,0-15.151-3.657A147.634,147.634,0,0,0,37.127,312.947,128.6,128.6,0,0,0,25.111,334.89c-1.567,3.135-1.045,6.792.522,9.927a208.43,208.43,0,0,0,14.106,20.9,198.548,198.548,0,0,0,24.033,27.167c7.314,7.314,15.673,14.106,24.033,20.9a238.25,238.25,0,0,0,284.212,0,229.711,229.711,0,0,0,24.033-20.9,241.248,241.248,0,0,0,24.033-27.167,183.168,183.168,0,0,0,14.106-20.9C436.8,341.682,437.322,338.024,435.755,334.89Z" fill="#4294ff"/>
      </g>
    </g>
  </g>
</svg>
