<svg xmlns="http://www.w3.org/2000/svg" width="16.364" height="18" viewBox="0 0 16.364 18">
  <path id="Location" d="M16.182,22C12.116,22,8,21.157,8,19.545c0-1.172,2.021-1.784,3.717-2.09a.409.409,0,1,1,.145.8c-2.218.4-3.044,1-3.044,1.285,0,.555,2.6,1.636,7.364,1.636s7.364-1.081,7.364-1.636c0-.284-.827-.884-3.044-1.285a.409.409,0,0,1,.145-.8c1.7.306,3.717.917,3.717,2.09C24.364,21.157,20.248,22,16.182,22Zm6.545-11.455c0,5.07-6.06,9.168-6.319,9.34a.409.409,0,0,1-.454,0c-.258-.172-6.319-4.271-6.319-9.34a6.545,6.545,0,1,1,13.091,0Zm-3.682,0a2.864,2.864,0,1,0-2.864,2.864A2.864,2.864,0,0,0,19.045,10.545Z" transform="translate(-8 -4)" fill="#e65627"/>
</svg>
