<svg xmlns="http://www.w3.org/2000/svg" width="18.75" height="12.75" viewBox="0 0 18.75 12.75">
  <g id="mail" transform="translate(0.375 0.375)">
    <g id="Group_20812" data-name="Group 20812" transform="translate(0 0)">
      <path id="Path_23939" data-name="Path 23939" d="M17.077,85.333H.923A.926.926,0,0,0,0,86.256V96.41a.926.926,0,0,0,.923.923H17.077A.926.926,0,0,0,18,96.41V86.256A.926.926,0,0,0,17.077,85.333Zm-.346.692-7.2,5.4a.965.965,0,0,1-1.062,0l-7.2-5.4Zm-3.846,5.756,3.923,4.846.013.013H1.179l.013-.013,3.923-4.846a.346.346,0,0,0-.538-.436l-3.885,4.8V86.458l7.361,5.521a1.652,1.652,0,0,0,1.892,0l7.361-5.521v9.687l-3.885-4.8a.346.346,0,0,0-.538.436Z" transform="translate(0 -85.333)" fill="#0f62fe" stroke="#0f62fe" stroke-width="0.75"/>
    </g>
  </g>
</svg>
