<svg xmlns="http://www.w3.org/2000/svg" width="30" height="30" viewBox="0 0 30 30">
  <path id="ic_settings" d="M36.191,18.288l-2.832-2.156A10.577,10.577,0,0,0,33.426,15a10.257,10.257,0,0,0-.067-1.133l2.834-2.157a1.328,1.328,0,0,0,.335-1.722L33.584,5.025a1.382,1.382,0,0,0-1.7-.6L28.539,5.735A11.534,11.534,0,0,0,26.533,4.6L26.024,1.15A1.352,1.352,0,0,0,24.664,0h-5.9A1.349,1.349,0,0,0,17.4,1.14L16.891,4.6a11.891,11.891,0,0,0-2,1.134l-3.35-1.31a1.41,1.41,0,0,0-1.691.586L6.9,9.981a1.321,1.321,0,0,0,.334,1.731l2.832,2.156a9.633,9.633,0,0,0,0,2.264L7.231,18.29A1.329,1.329,0,0,0,6.9,20.013l2.945,4.961a1.379,1.379,0,0,0,1.7.6l3.341-1.306A11.636,11.636,0,0,0,16.891,25.4l.508,3.45A1.351,1.351,0,0,0,18.76,30h5.9a1.35,1.35,0,0,0,1.359-1.14l.51-3.462a11.945,11.945,0,0,0,2-1.135l3.35,1.31a1.412,1.412,0,0,0,.5.093,1.362,1.362,0,0,0,1.187-.678L36.535,20A1.326,1.326,0,0,0,36.191,18.288ZM21.711,20a5,5,0,1,1,5.135-5A5.074,5.074,0,0,1,21.711,20Z" transform="translate(-6.71)" fill="#e65627"/>
</svg>
