<svg xmlns="http://www.w3.org/2000/svg" width="18.571" height="18.568" viewBox="0 0 18.571 18.568">
  <g id="telephone" transform="translate(0.249 0.25)">
    <path id="Path_23942" data-name="Path 23942" d="M4.559,12.011A19.169,19.169,0,0,0,10.935,17,9.923,9.923,0,0,0,14.5,18.061c.086,0,.168.007.255.007a2.955,2.955,0,0,0,2.291-.985.082.082,0,0,0,.015-.019,9.647,9.647,0,0,1,.723-.749c.176-.168.356-.344.528-.524a1.808,1.808,0,0,0-.007-2.692l-2.25-2.25a1.821,1.821,0,0,0-1.318-.607,1.883,1.883,0,0,0-1.333.6l-1.34,1.34c-.124-.071-.251-.135-.371-.195a4.63,4.63,0,0,1-.412-.225A14.185,14.185,0,0,1,7.9,8.682,8.169,8.169,0,0,1,6.749,6.855c.352-.318.681-.651,1-.977.112-.116.228-.232.344-.348a1.919,1.919,0,0,0,.621-1.348,1.9,1.9,0,0,0-.621-1.348L6.978,1.718c-.131-.131-.255-.258-.382-.389-.247-.255-.505-.517-.76-.753A1.866,1.866,0,0,0,4.518,0,1.922,1.922,0,0,0,3.185.58l-1.4,1.4A2.877,2.877,0,0,0,.928,3.823a6.929,6.929,0,0,0,.52,3A17.425,17.425,0,0,0,4.559,12.011ZM1.841,3.9a1.98,1.98,0,0,1,.6-1.273L3.829,1.235A1.008,1.008,0,0,1,4.518.917a.957.957,0,0,1,.674.326c.251.232.487.475.741.734.127.131.258.262.389.4L7.438,3.489a1.017,1.017,0,0,1,.352.7,1.017,1.017,0,0,1-.352.7c-.116.116-.232.236-.348.352-.348.352-.674.685-1.033,1l-.019.019a.732.732,0,0,0-.187.831c0,.011.007.019.011.03A8.811,8.811,0,0,0,7.176,9.262a14.972,14.972,0,0,0,3.609,3.287,5.359,5.359,0,0,0,.494.27,4.629,4.629,0,0,1,.412.225l.041.022a.783.783,0,0,0,.363.094.794.794,0,0,0,.558-.255l1.4-1.4a.991.991,0,0,1,.685-.333.94.94,0,0,1,.663.333l2.258,2.254a.9.9,0,0,1-.011,1.411c-.157.168-.322.329-.5.5a10.782,10.782,0,0,0-.782.812,2.055,2.055,0,0,1-1.606.681c-.064,0-.131,0-.195-.007a9.015,9.015,0,0,1-3.227-.966,18.21,18.21,0,0,1-6.069-4.755A16.679,16.679,0,0,1,2.313,6.511,6.038,6.038,0,0,1,1.841,3.9Z" transform="translate(-0.912 0)" fill="#0f62fe" stroke="#0f62fe" stroke-width="0.5"/>
  </g>
</svg>
